<?xml version="1.0" encoding="utf-8"?>
<!-- Uploaded to: SVG Repo, www.svgrepo.com, Generator: SVG Repo Mixer Tools -->
<svg width="30px" height="30px" viewBox="0 0 1024 1024" class="icon"  version="1.1" xmlns="http://www.w3.org/2000/svg"><path d="M895.4 586.6c0 212.1-171.9 384-384 384s-384-171.9-384-384 171.9-530.9 384-530.9 384 318.8 384 530.9z" fill="#FAFCFC" /><path d="M511.3 984c-53.6 0-105.7-10.5-154.7-31.2-47.3-20-89.8-48.7-126.3-85.1-36.5-36.5-65.1-79-85.1-126.3-20.7-49-31.2-101-31.2-154.7 0-109.2 43.9-244.2 114.7-352.3 37.1-56.7 80.4-103.8 125.4-136.3 51.1-36.9 104-55.6 157.3-55.6s106.2 18.7 157.3 55.6c45 32.5 88.3 79.6 125.4 136.3 70.7 108.1 114.7 243.1 114.7 352.3 0 53.6-10.5 105.7-31.2 154.7-20 47.3-48.7 89.8-85.1 126.3-36.5 36.5-79 65.1-126.3 85.1C617 973.5 565 984 511.3 984z m0-915c-47.6 0-95.2 17-141.7 50.6-42.4 30.6-83.4 75.3-118.7 129.3-68 104-110.3 233.4-110.3 337.7 0 99 38.6 192.1 108.6 262.2 70 70 163.1 108.6 262.2 108.6 99 0 192.1-38.6 262.2-108.6 70-70 108.6-163.1 108.6-262.2 0-104.3-42.3-233.7-110.3-337.7-35.3-54-76.4-98.7-118.7-129.3C606.6 86.1 558.9 69 511.3 69z" fill="#154B8B" /><path d="M413.7 283m-42.4 0a42.4 42.4 0 1 0 84.8 0 42.4 42.4 0 1 0-84.8 0Z" fill="#9ED5E4" /><path d="M269.2 573.1m-69.7 0a69.7 69.7 0 1 0 139.4 0 69.7 69.7 0 1 0-139.4 0Z" fill="#9ED5E4" /><path d="M647.6 675.9m-158.4 0a158.4 158.4 0 1 0 316.8 0 158.4 158.4 0 1 0-316.8 0Z" fill="#9ED5E4" /></svg>